<mxfile host="app.diagrams.net" modified="2023-09-05T08:57:31.903Z" agent="Mozilla/5.0 (Windows NT 10.0; Win64; x64) AppleWebKit/537.36 (KHTML, like Gecko) Chrome/116.0.0.0 Safari/537.36" etag="yI_9gP8T_FQT1PumytkX" version="21.7.2" type="github">
  <diagram name="Page-1" id="m8eI429cvAeTCHER5-O9">
    <mxGraphModel dx="1050" dy="534" grid="1" gridSize="10" guides="1" tooltips="1" connect="1" arrows="1" fold="1" page="1" pageScale="1" pageWidth="827" pageHeight="1169" math="0" shadow="0">
      <root>
        <mxCell id="0" />
        <mxCell id="1" parent="0" />
        <mxCell id="bsKE3KsOXrh8Bfr4fvpK-1" value="BERT Embeddings" style="rounded=0;whiteSpace=wrap;html=1;rotation=90;" vertex="1" parent="1">
          <mxGeometry x="50" y="200" width="120" height="60" as="geometry" />
        </mxCell>
        <mxCell id="bsKE3KsOXrh8Bfr4fvpK-2" value="Deep Network&amp;nbsp;" style="shape=cube;whiteSpace=wrap;html=1;boundedLbl=1;backgroundOutline=1;darkOpacity=0.05;darkOpacity2=0.1;" vertex="1" parent="1">
          <mxGeometry x="210" y="160" width="210" height="140" as="geometry" />
        </mxCell>
        <mxCell id="bsKE3KsOXrh8Bfr4fvpK-3" value="Learned Code Embeddings" style="rounded=0;whiteSpace=wrap;html=1;rotation=90;" vertex="1" parent="1">
          <mxGeometry x="460" y="200" width="120" height="60" as="geometry" />
        </mxCell>
        <mxCell id="bsKE3KsOXrh8Bfr4fvpK-4" value="CodeBERT Embeddings" style="rounded=0;whiteSpace=wrap;html=1;" vertex="1" parent="1">
          <mxGeometry x="580" y="60" width="120" height="60" as="geometry" />
        </mxCell>
        <mxCell id="bsKE3KsOXrh8Bfr4fvpK-5" value="" style="endArrow=classic;html=1;rounded=0;entryX=0;entryY=0.637;entryDx=0;entryDy=0;entryPerimeter=0;" edge="1" parent="1">
          <mxGeometry width="50" height="50" relative="1" as="geometry">
            <mxPoint x="140" y="240.82" as="sourcePoint" />
            <mxPoint x="210" y="240.00000000000006" as="targetPoint" />
            <Array as="points">
              <mxPoint x="170" y="240.82" />
            </Array>
          </mxGeometry>
        </mxCell>
        <mxCell id="bsKE3KsOXrh8Bfr4fvpK-6" value="" style="endArrow=classic;html=1;rounded=0;entryX=0;entryY=0.637;entryDx=0;entryDy=0;entryPerimeter=0;" edge="1" parent="1">
          <mxGeometry width="50" height="50" relative="1" as="geometry">
            <mxPoint x="414" y="241" as="sourcePoint" />
            <mxPoint x="484" y="240" as="targetPoint" />
            <Array as="points">
              <mxPoint x="444" y="241" />
            </Array>
          </mxGeometry>
        </mxCell>
        <mxCell id="bsKE3KsOXrh8Bfr4fvpK-7" value="Weights Mapping" style="ellipse;whiteSpace=wrap;html=1;" vertex="1" parent="1">
          <mxGeometry x="260" y="350" width="120" height="80" as="geometry" />
        </mxCell>
        <mxCell id="bsKE3KsOXrh8Bfr4fvpK-8" value="Loss Function Based on Similarity Score" style="shape=hexagon;perimeter=hexagonPerimeter2;whiteSpace=wrap;html=1;fixedSize=1;" vertex="1" parent="1">
          <mxGeometry x="650" y="290" width="120" height="80" as="geometry" />
        </mxCell>
        <mxCell id="bsKE3KsOXrh8Bfr4fvpK-9" value="" style="shape=flexArrow;endArrow=classic;html=1;rounded=0;exitX=0.45;exitY=1.007;exitDx=0;exitDy=0;exitPerimeter=0;entryX=0.375;entryY=0;entryDx=0;entryDy=0;" edge="1" parent="1" source="bsKE3KsOXrh8Bfr4fvpK-4" target="bsKE3KsOXrh8Bfr4fvpK-8">
          <mxGeometry width="50" height="50" relative="1" as="geometry">
            <mxPoint x="650" y="190" as="sourcePoint" />
            <mxPoint x="700" y="140" as="targetPoint" />
          </mxGeometry>
        </mxCell>
        <mxCell id="bsKE3KsOXrh8Bfr4fvpK-10" value="" style="shape=flexArrow;endArrow=classic;html=1;rounded=0;exitX=0.45;exitY=1.007;exitDx=0;exitDy=0;exitPerimeter=0;entryX=0;entryY=0.375;entryDx=0;entryDy=0;entryPerimeter=0;" edge="1" parent="1" target="bsKE3KsOXrh8Bfr4fvpK-8">
          <mxGeometry width="50" height="50" relative="1" as="geometry">
            <mxPoint x="550" y="210" as="sourcePoint" />
            <mxPoint x="611" y="380" as="targetPoint" />
          </mxGeometry>
        </mxCell>
        <mxCell id="bsKE3KsOXrh8Bfr4fvpK-11" value="" style="endArrow=none;dashed=1;html=1;rounded=0;" edge="1" parent="1">
          <mxGeometry width="50" height="50" relative="1" as="geometry">
            <mxPoint x="670" y="420" as="sourcePoint" />
            <mxPoint x="720" y="370" as="targetPoint" />
          </mxGeometry>
        </mxCell>
        <mxCell id="bsKE3KsOXrh8Bfr4fvpK-12" value="RLHF Pipeline" style="shape=cylinder3;whiteSpace=wrap;html=1;boundedLbl=1;backgroundOutline=1;size=15;" vertex="1" parent="1">
          <mxGeometry x="610" y="410" width="60" height="80" as="geometry" />
        </mxCell>
      </root>
    </mxGraphModel>
  </diagram>
</mxfile>
